#tb 0: 1/25
#media_type 0: video
#codec_id 0: rawvideo
#dimensions 0: 720x576
#sar 0: 16/15
0,          9,          9,        1,  1244160, 0x67910b3d
0,         10,         10,        1,  1244160, 0xdbb80927
0,         11,         11,        1,  1244160, 0xd5d4f27a
0,         12,         12,        1,  1244160, 0xde270630
0,         13,         13,        1,  1244160, 0xe57833cc
0,         14,         14,        1,  1244160, 0xc806eabd
0,         15,         15,        1,  1244160, 0xe041958a
0,         16,         16,        1,  1244160, 0x0007fdc7
0,         17,         17,        1,  1244160, 0xed25afda
0,         18,         18,        1,  1244160, 0x43f8e068
0,         19,         19,        1,  1244160, 0xd95b763a
0,         20,         20,        1,  1244160, 0xf99cacdb
0,         21,         21,        1,  1244160, 0x3c33ec50
0,         22,         22,        1,  1244160, 0xf5260151
0,         23,         23,        1,  1244160, 0x88e9f2e9
0,         24,         24,        1,  1244160, 0x104cfe20
0,         25,         25,        1,  1244160, 0x804d6a33
0,         26,         26,        1,  1244160, 0x8c668008
0,         27,         27,        1,  1244160, 0x63cf270a
0,         28,         28,        1,  1244160, 0xc526e89a
0,         29,         29,        1,  1244160, 0xe318e4d4
0,         30,         30,        1,  1244160, 0x7c6b63a3
0,         31,         31,        1,  1244160, 0x40deffdd
0,         32,         32,        1,  1244160, 0xd256c2a9
0,         33,         33,        1,  1244160, 0xc44d9f6b
0,         34,         34,        1,  1244160, 0xab9c9f60
0,         35,         35,        1,  1244160, 0xba3caff9
0,         36,         36,        1,  1244160, 0x9efcf7d9
0,         37,         37,        1,  1244160, 0x150d3dd5
0,         38,         38,        1,  1244160, 0xf0dca6ac
